# xmcd
#
# Track frame offsets: 
#        150
#        13037
#        27352
#        40047
#        52497
#        65720
#        88775
#        99927
#        110427
#        122762
#
# Disc length: 1788 seconds
#
# Revision: 5
# Processed by: cddbd v1.5.2PL0 Copyright (c) Steve Scherf et al.
# Submitted via: ExactAudioCopyFreeDBPlugin 1.0
#
DISCID=8606fa0a
DTITLE=Rhythm and Blues Legends - Rhythm and Blues Legends
DYEAR=1998
DGENRE=Soul
TTITLE0=Ray Charles - I Got a Woman
TTITLE1=Lavern Baker - Tweedle Dee
TTITLE2=Joe Turner - Flip Flop And Fly
TTITLE3=Ivory Joe Hunter - Empty Arms
TTITLE4=Ruth Brown - Oh What a Dream
TTITLE5=Ray Charles - What'd I Say
TTITLE6=The Drifters - This Magic Moment
TTITLE7=Chuck Willis - Hang up My Rock And Roll Shoes
TTITLE8=Solomon Brown - Just Out of Reach (of My Two Hands)
TTITLE9=Ben E. King - I (Who Have Nothing)
EXTD=
EXTT0=
EXTT1=
EXTT2=
EXTT3=
EXTT4=
EXTT5=
EXTT6=
EXTT7=
EXTT8=
EXTT9=
PLAYORDER=
